<?xml version='1.0' encoding='utf-8'?>
<svg xmlns="http://www.w3.org/2000/svg" viewBox="0 0 3617.78 3082.69"> <defs> <style> .cls-1 { fill: #fa7647; } .cls-1, .cls-10, .cls-11, .cls-12, .cls-14, .cls-15, .cls-16, .cls-17, .cls-18, .cls-19, .cls-2, .cls-20, .cls-5, .cls-6, .cls-7, .cls-8, .cls-9 { stroke: #000; } .cls-1, .cls-10, .cls-11, .cls-14, .cls-15, .cls-16, .cls-17, .cls-18, .cls-19, .cls-2, .cls-20, .cls-3, .cls-4, .cls-5, .cls-6, .cls-7, .cls-8, .cls-9 { stroke-linecap: square; } .cls-1, .cls-14, .cls-15, .cls-16, .cls-17, .cls-3, .cls-4 { stroke-width: 17.78px; } .cls-2 { fill: #8c2018; stroke-width: 16.3px; } .cls-3 { fill: #fdf4af; } .cls-3, .cls-4 { stroke: #231710; } .cls-10, .cls-16, .cls-4, .cls-7 { fill: #ffd163; } .cls-5, .cls-8 { fill: #ffb30d; } .cls-5, .cls-6, .cls-7 { stroke-width: 15.52px; } .cls-6, .cls-9 { fill: #ff9702; } .cls-10, .cls-8, .cls-9 { stroke-width: 15.45px; } .cls-11, .cls-12 { fill: #e95622; } .cls-11 { stroke-width: 12.66px; } .cls-12 { stroke-linecap: round; stroke-linejoin: round; } .cls-12, .cls-18 { stroke-width: 4.22px; } .cls-13 { fill: #f9b194; } .cls-14 { fill: #a63131; } .cls-15 { fill: #bf3b50; } .cls-17 { fill: #fce29c; } .cls-18 { fill: #fe6934; } .cls-19 { fill: #8a8a8a; } .cls-19, .cls-20 { stroke-width: 8.44px; } .cls-20 { fill: #bebebe; } </style> </defs> <title>Randy Parker</title> <g id="Layer_2" data-name="Layer 2"> <g id="Randy_Parker" data-name="Randy Parker"> <g id="document"> <g> <g> <path class="cls-1" d="M1853.52,11.88s534.87,549.46,465.08,1017.28c561.31-100.15,861.31,75,861.31,75s-115.31,320-751,556.77c348.67,602.44,323.89,982.39,150,1173.41-438-180.7-554.11-252.6-757.66-505.82-258,365.64-750.65,362-896,586.08-2.15-210.59,32.4-888.49,264.22-1241-277.14-120.91-764.88-541.26-764.88-541.26s364.76-311.76,878.23-92.81C1296.7,440.9,1853.52,11.88,1853.52,11.88Z"/> <path class="cls-2" d="M1825.67,1208.94c-223.66,5.87-394.58-86.21-476.53-216.83l-.15-14.88c18.76-268.52,165.56-479.16,413.27-511.46,18.58-2.67,37.18-2.86,55.78-3s37.2-.39,55.83,1.91c248.32,27.22,402.61,236.47,405.21,490.69l.12,12.4C2244.56,1167,1995.12,1204.5,1825.67,1208.94Z"/> <g> <path class="cls-3" d="M3321.47,998.09c-111.83,34.34-197.69,99.51-222.93,162.84l10.52,103.21c57.17-12.58,92.67,14.07,125,30.11s80.89,46.67,206.77,3.27S3651.67,1130.19,3586.29,996l-1.47-4.79C3527.75,953.18,3435.82,963,3321.47,998.09Z"/> <g> <path class="cls-4" d="M3332,1018.65c-93.46,37.24-162.5,99.1-179.71,155.14l1.91,4.81c32.72,82.08,132.78,101.13,241.62,68.89a374.55,374.55,0,0,0,47.25-18.83c101.17-51.46,162.81-134.94,130.1-217l-1.6-4C3520.05,979,3427.59,980.57,3332,1018.65Z"/> <path class="cls-3" d="M3059.26,1266.58c130.67-2,142.32,15.58,155.12-117.1s-152.25-104.45-161.6-95.58S3025.57,1267.1,3059.26,1266.58Z"/> <path class="cls-3" d="M3263.33,1071.51c-25.57,85.13-34.14,216.63-89.2,169.14-51.57-91.88-74.68-201.82,51.11-264.71,76.92-38.46,237.35-3.43,213.91,62.32S3281.51,1011,3263.33,1071.51Z"/> </g> </g> <g> <path class="cls-3" d="M294.43,989.68c112.51,32.05,199.69,95.45,226.22,158.25l-8.41,103.4c-57.42-11.41-92.37,16-124.32,32.66s-79.93,48.32-206.67,7.5S-33,1128.51,29.63,993L31,988.22C87.27,949,179.39,956.91,294.43,989.68Z"/> <g> <path class="cls-4" d="M284.29,1010.46c94.19,35.32,164.49,95.75,182.84,151.43l-1.82,4.84c-31,82.74-130.68,103.83-240.15,73.82a250,250,0,0,1-24.11-8.12,249.15,249.15,0,0,1-23.51-9.74C75.33,1173.32,12,1091.11,43,1008.37l1.52-4C95.51,974.65,188,974.34,284.29,1010.46Z"/> <path class="cls-3" d="M562.08,1252.75c-130.68.66-142,18.49-157.48-113.9S554.68,1031.31,564.21,1040,595.78,1252.58,562.08,1252.75Z"/> <path class="cls-3" d="M354.06,1061.89c27.3,84.59,38.57,215.9,92.64,167.28,49.68-92.91,70.54-203.3-56.51-263.6C312.5,928.69,152.82,967,177.6,1032.25S334.65,1001.73,354.06,1061.89Z"/> </g> </g> <g> <g> <path class="cls-5" d="M1203.4,2734.74l-26.17,249.89c-181.17-28.75-321.18-80.76-312.81-133.5l38.41-242.06C897.72,2525.52,1245,2662.37,1203.4,2734.74Z"/> <path class="cls-6" d="M995.56,2763.09c-244.7.49-209.82,221.57-209.82,221.57s98.41,44.53,210.35,44.31,225-45.16,225-45.16S1241,2762.61,995.56,2763.09Z"/> <path class="cls-7" d="M995.56,2763.09c-244.7.49-209.89,186.13-209.89,186.13s98.41,44.52,210.35,44.3,225-45.16,225-45.16S1241,2762.61,995.56,2763.09Z"/> </g> <g> <path class="cls-8" d="M2406.18,2798.64l46.79,245.9c177.46-43.63,312.12-106.93,299.41-158.58l-58.29-237.1C2692.2,2565.49,2358.88,2730.27,2406.18,2798.64Z"/> <path class="cls-9" d="M2614.86,2809.48c243-19.9,226.75,202.48,226.75,202.48s-94,52.4-205.12,61.5-227.1-26.09-227.1-26.09S2371.19,2829.44,2614.86,2809.48Z"/> <path class="cls-10" d="M2614.86,2809.48c243-19.9,223.87,167.29,223.87,167.29s-94,52.39-205.13,61.5-227.09-26.1-227.09-26.1S2371.19,2829.44,2614.86,2809.48Z"/> </g> </g> </g> <g> <path class="cls-11" d="M2371.28,1174C2100.87,1475.52,1466,1482.33,1248,1177.41c-.65-64.09-12.59-160,43.47-214.71,211.72,258.31,641.36,426.4,1057.13-17.56C2391,1005.58,2407,1110.89,2371.28,1174Z"/> <path class="cls-12" d="M2508.87,1773.56c-10.45,12.93-348.93,77.9-690.95,84.75s-687.57-44.44-706.55-43.88c-38,1.13,12.07-118.18,20.59-163.31,426.32,102.87,921.18,75.21,1346.81-36.38C2479.35,1671.21,2529.79,1747.69,2508.87,1773.56Z"/> <path class="cls-11" d="M558.74,1241.14c-22.55-57.66-29.92-101.76.78-187.37,44.86-19.4,113.22-42.64,175-60.15C636.11,1096.5,617.25,1213.1,691,1335.23,658.5,1315.15,596,1262.76,558.74,1241.14Z"/> <path class="cls-11" d="M3073.45,1269.09c17.66-66.72,20.23-116.49-24.62-207.4-52.14-15.8-130.79-32.87-201.41-44.43,122,101.46,157.68,228.2,91.47,372.8C2972.35,1363.71,3034.9,1297.77,3073.45,1269.09Z"/> </g> <g> <g> <path class="cls-13" d="M1845.09,1116.21c-147.1,1.5-275-58.35-329.59-145.4l-.11-9.91c-1.73-169.41,123.29-309.53,288.36-331.06,12.38-1.77,24.77-1.9,37.17-2s24.79-.25,37.2,1.27c165.48,18.15,295,155.67,296.72,325.07l.08,8.26C2121.28,1050.57,1995.49,1114.67,1845.09,1116.21Z"/> <path class="cls-14" d="M2188,751.77c-3.4-.72-5.95-1.46-9.34-2.18-.93-90.3,4.87-53.05-47.13-138.55-89.1-58.08-159.27-100-267.45-105s-228.36,40-321.36,111c-61.6,86.43-64.57,68.93-63.83,142-3.38.79-6.76,1.59-9.29,2.37-15.21,4-25.25,16.22-25.1,30.65l.78,76c.22,21.27,53.08,4.77,75.89-.78,205.82-76.16,477.21-79.9,650.44,21.46,22.92,5.09,44.79-10.34,44.58-30.85l-.78-76A36.24,36.24,0,0,0,2188,751.77Z"/> <path class="cls-15" d="M2169.8,715.82c-49.59-8.16-161.65-64.79-380-62.55s-359.35,71-367.84,107.22c0,0-9.49,102.83,13.37,125.6s46.51,62.74,69.85,55.4c141.32-110.77,577.24-95.41,652.46-21.18S2241,878,2240.57,833.24C2233.14,736.58,2219.39,724,2169.8,715.82Z"/> <path class="cls-16" d="M2217.42,1068.39c-115.73-.87-190.79,135.68-440.13,118.39s-332.66-134.8-377.86-175.11-30.48-153.62-1.79-174.79S1587.7,953,1795.58,960.94c414.23-22.82,384.05-66.2,444.16-91.94C2288.82,998.36,2231,1068.49,2217.42,1068.39Z"/> <path class="cls-17" d="M2315.51,1181.83C2052.57,973.19,2187.68,927,2155.1,887.21S1927.89,911,1945,949.4,1889.82,1033,2054.46,1315s622.93,489.88,622.93,489.88a21.48,21.48,0,0,0,35.06-24.81s-51.46-58-44.5-62.9,72.35,43.2,72.35,43.2a21.47,21.47,0,1,0,35.06-24.8s-51.47-58-44.51-62.91,72.35,43.21,72.35,43.21a21.48,21.48,0,0,0,35.06-24.81s-51.46-58-44.5-62.9,72.34,43.2,72.34,43.2a21.47,21.47,0,1,0,35.06-24.8Z"/> </g> <g> <g> <g> <path class="cls-18" d="M1764.14,1965.53c1.07,104.58,26.06,188,55.56,187.7s52.78-85.27,51.72-188.8l1.71-745.33s-34.71,7.08-64.82,7.41a243.91,243.91,0,0,1-55.62-6.09Z"/> <path class="cls-19" d="M1795,2031.26l.47,45.57,47-.48-.47-45.57Zm-1.58-155.12.4,39.12,47-.48-.4-39.12ZM1792.32,1773l.4,39.13,47-.48-.4-39.13Zm-.53-51.55.4,39.12,47-.48-.4-39.12Zm2.65,258.23.4,39.12,47-.48-.4-39.13Zm-3.23-315.77.46,45.57,47-.48-.46-45.57Zm1.64,160.64.4,39.13,47-.48-.4-39.13Zm1.05,103.11.4,39.13,47-.48-.4-39.13Zm-3.31-324,.47,45.57,47-.48-.47-45.57ZM1789,1448.58l.4,39.12,47-.48-.4-39.12Zm-1-103.11.4,39.13,47-.48-.4-39.13Zm-.53-51.55.4,39.12,47-.48-.4-39.12Zm2.64,258.23.4,39.12,47-.48-.4-39.12Zm-3.23-315.77.47,45.57,47-.48-.47-45.57Zm1.64,160.65.41,39.12,47-.48-.4-39.12Zm1.06,103.1.4,39.13,47-.48-.4-39.13Z"/> <path class="cls-20" d="M1842,2054.28l.75,49.27-46.92.71-.75-49.27,23.83,24.25Z"/> </g> <path class="cls-20" d="M1786.64,1256.88l-.86-50.25,47.85-.82.86,50.24-24.35-24.68Z"/> </g> <path class="cls-20" d="M1813.7,1426.94a32.26,32.26,0,0,0,31.71-33.21L1842.75,1279l-29-27.52,1.4,62.7,14.58,13a4.73,4.73,0,1,1-6.53,6.84l-7.1-6.78.53,23,.26.24,13.94,13.32a4.73,4.73,0,1,1-6.53,6.84l-7.23-6.9.34,14.62a4.71,4.71,0,1,1-9.42.22l-.32-13.87-6.66,7a4.73,4.73,0,0,1-6.84-6.54l13.19-13.82-.78-22.79-6.41,6.72a4.74,4.74,0,1,1-6.85-6.54l17.17-14.67-1.57-62.57L1777.59,1281l2.66,114.73A32.54,32.54,0,0,0,1813.7,1426.94Z"/> </g> </g> </g> </g> </g> </g> </svg>